PathFileType  4	(X/Y/Z) C:\Users\antoi\Documents\MyRepositories\mobilecap\ResultsAnalysis
DataRate	CameraRate	NumFrames	NumMarkers	Units	OrigDataRate	OrigDataStartFrame	OrigNumFrames
100.0	100.0	4	51	mm	100.0	124	197
Frame#	Time	r_knee			r_shank_antsup			r_ankle			r_calc			r_5meta			r_toe			L_knee			L_shank_antsup			L_ankle			L_calc			L_5meta			L_toe			r_sh2			r_sh3			r_sh4			L_sh2			L_sh3			r_thigh1			r_thigh2			r_thigh3			r_thigh4			r_thigh5			L_thigh1			L_thigh2			L_thigh3			L_thigh4			r.ASIS			r.PSIS			L.ASIS			L.PSIS			C7			R_Shoulder			L_Shoulder			R_Sternum			L_Sternum			R_humerus			R_elbow_med			R_elbow_lat			R_forearm			R_wrist_radius			R_wrist_ulna			L_humerus			L_elbow_med			L_elbow_lat			L_forearm			L_wrist_radius			L_wrist_ulna			R_HJC			L_HJC			R_HJC_reg			L_HJC_reg			
		X1	Y1	Z1	X2	Y2	Z2	X3	Y3	Z3	X4	Y4	Z4	X5	Y5	Z5	X6	Y6	Z6	X7	Y7	Z7	X8	Y8	Z8	X9	Y9	Z9	X10	Y10	Z10	X11	Y11	Z11	X12	Y12	Z12	X13	Y13	Z13	X14	Y14	Z14	X15	Y15	Z15	X16	Y16	Z16	X17	Y17	Z17	X18	Y18	Z18	X19	Y19	Z19	X20	Y20	Z20	X21	Y21	Z21	X22	Y22	Z22	X23	Y23	Z23	X24	Y24	Z24	X25	Y25	Z25	X26	Y26	Z26	X27	Y27	Z27	X28	Y28	Z28	X29	Y29	Z29	X30	Y30	Z30	X31	Y31	Z31	X32	Y32	Z32	X33	Y33	Z33	X34	Y34	Z34	X35	Y35	Z35	X36	Y36	Z36	X37	Y37	Z37	X38	Y38	Z38	X39	Y39	Z39	X40	Y40	Z40	X41	Y41	Z41	X42	Y42	Z42	X43	Y43	Z43	X44	Y44	Z44	X45	Y45	Z45	X46	Y46	Z46	X47	Y47	Z47	X48	Y48	Z48	X49	Y49	Z49	X50	Y50	Z50	X51	Y51	Z51	

124	1.23000000	-122.18974	455.71254	-379.78409	-80.02551	376.41516	-391.50168	-272.82967	99.28103	-373.15599	-356.86509	65.73345	-401.71638	-181.76205	45.69972	-338.80374	-132.69437	70.36830	-395.22604	-142.30066	446.79537	-749.44567	-118.42906	349.25716	-765.60405	-309.27643	104.23071	-762.50662	-388.06787	64.92845	-717.36380	-221.60095	41.77923	-810.88308	-175.99954	62.49712	-758.45676	-143.13493	282.28834	-363.98707	-143.28291	422.10284	-359.11950	-203.98863	324.57412	-348.04879	-194.99406	395.40507	-766.82342	-248.37555	285.96468	-780.52819	-341.09530	685.65093	-374.37020	-252.44945	619.20209	-375.36502	-268.85134	556.54864	-351.83492	-409.55560	595.83084	-364.44516	-313.75293	526.98041	-365.69852	-329.22681	644.30188	-781.35010	-215.08418	567.27476	-766.40443	-393.86703	552.32050	-741.82331	-273.48426	477.34560	-743.51523	-343.57200	711.97545	-438.05052	-490.67475	832.29153	-509.71340	-345.60158	717.49484	-677.85489	-491.74152	844.54065	-605.38786	-160.00043	1101.13068	-572.32989	-44.21660	1029.77970	-433.95127	-59.72125	1026.43978	-720.39434	-62.19476	984.77072	-550.32957	-55.35902	985.04241	-585.92151	4.76121	934.61757	-367.06348	39.04895	717.92546	-415.64897	76.72313	746.94506	-349.62950	174.71128	818.63011	-415.65373	255.10438	876.32490	-484.69873	283.27415	853.20381	-486.47650	-22.51718	945.10106	-788.20101	43.54925	713.58056	-761.18412	62.94021	760.27628	-826.68364	139.94486	811.46641	-761.70303	251.26074	853.26407	-677.28183	271.39206	841.37308	-702.61925	-446.95342	675.79261	-459.54419	-445.76366	685.36979	-665.78953	-438.18255	671.42071	-475.28495	-439.93342	691.52484	-632.31183	
125	1.24000000	-121.20456	455.98662	-379.32680	-79.16450	376.19742	-391.06531	-272.74202	99.26306	-373.12404	-356.80668	65.76110	-401.80635	-181.73135	45.64610	-338.66927	-132.57222	70.10669	-395.22905	-140.91716	446.90301	-748.98965	-117.47891	348.83082	-765.12688	-309.20203	104.27811	-762.59752	-388.01472	64.97687	-717.45753	-221.56738	41.75636	-811.01184	-176.00484	62.36928	-758.45291	-142.55493	282.17944	-363.80739	-143.20179	420.85357	-359.47470	-203.46942	324.12289	-347.74332	-193.89701	395.09527	-766.55078	-247.40302	286.17154	-781.07414	-337.58991	688.26396	-374.09347	-249.92262	620.90415	-375.28042	-266.83314	558.57683	-351.67834	-407.15604	599.36310	-363.69373	-312.16740	529.49918	-365.44608	-325.78276	646.74123	-780.44401	-212.24877	568.34068	-765.50756	-391.40861	555.18473	-741.47663	-271.66692	479.11873	-743.33925	-340.61997	715.13083	-437.30213	-487.69076	835.92353	-509.34711	-342.37413	720.22474	-676.74191	-488.45743	847.96526	-605.13624	-157.43339	1104.70436	-569.82600	-42.63899	1032.26418	-430.70725	-56.62308	1029.74663	-717.52942	-57.92836	987.94559	-547.27025	-53.10366	988.00686	-583.07896	6.34189	937.22921	-365.41186	43.89658	721.81134	-417.75145	80.57667	750.04259	-350.42328	177.74711	824.08646	-415.50750	257.20947	883.47965	-483.35367	285.64625	860.75905	-485.72269	-18.23982	949.05947	-785.26897	50.35429	718.62235	-756.29373	67.79143	765.09270	-823.46424	144.42787	817.03810	-758.10512	254.51030	860.03890	-673.51265	275.27796	848.38768	-698.97054	-444.26448	679.31627	-458.75484	-442.68642	688.43701	-665.01866	-435.42615	674.92311	-474.62715	-436.68126	694.63823	-631.45829	
126	1.25000000	-119.65943	456.08591	-378.69139	-77.99119	375.72386	-390.86464	-272.40893	99.35655	-373.14052	-356.68711	65.98902	-401.91299	-181.59403	45.58583	-338.44101	-132.36027	69.71148	-395.18168	-138.89834	446.79073	-748.60387	-116.19231	348.31567	-764.69546	-308.98479	104.41703	-762.71232	-387.86411	65.11910	-717.56876	-221.50492	41.67528	-811.11781	-175.89463	62.09881	-758.43005	-141.71106	282.01238	-363.52833	-141.84627	420.31065	-359.04071	-202.49254	323.90032	-347.54347	-192.47117	394.82840	-766.29729	-246.23536	286.07622	-781.06539	-333.41279	690.67755	-374.16130	-246.96950	622.83256	-375.12857	-264.02488	560.74719	-351.29756	-404.02250	602.98810	-362.71624	-309.73965	532.06854	-364.91336	-321.48512	648.74938	-779.35992	-208.74625	569.03340	-764.70719	-388.21190	557.93498	-740.94468	-269.22333	480.58954	-743.06700	-337.07780	718.41899	-436.66292	-484.52620	839.50287	-509.07881	-339.05701	722.83852	-675.79696	-485.14194	851.20311	-605.07200	-155.30726	1109.06723	-567.12664	-41.36181	1035.88106	-427.13317	-54.20009	1034.12040	-714.88790	-54.38588	992.15846	-544.33970	-51.01187	992.61778	-580.87783	6.85421	940.59039	-362.93920	47.06949	726.61875	-418.83796	82.74540	753.47264	-350.45486	179.18828	830.17177	-414.48530	258.13439	891.19710	-481.19665	286.55063	868.75832	-484.15802	-14.52599	954.19622	-782.73224	54.96665	724.44378	-753.57824	71.48036	770.94942	-821.02002	147.55239	823.49420	-754.85786	256.04532	867.82053	-670.19422	277.49771	856.40160	-695.45230	-441.06048	682.88192	-457.92248	-439.44502	691.26578	-664.21650	-432.18629	678.42730	-473.89981	-433.19114	697.52638	-630.59783	
127	1.26000000	-117.60184	455.98338	-377.96232	-76.52839	375.08551	-390.78414	-271.94413	99.60891	-373.26703	-356.47094	66.35772	-402.12752	-181.37473	45.48035	-338.27799	-132.06511	69.16275	-395.18795	-136.43793	446.36000	-748.15842	-114.50288	347.78526	-764.38815	-308.52927	104.68272	-762.62090	-387.57241	65.39741	-717.62525	-221.40382	41.59717	-811.26750	-175.64508	61.73736	-758.46027	-140.41472	281.48180	-363.34025	-139.79564	420.48008	-358.26184	-201.06465	323.75976	-347.32493	-190.51141	394.59190	-766.04136	-244.60007	286.42194	-780.76288	-328.72447	693.58619	-374.09269	-243.26217	625.14689	-374.77171	-260.47051	563.03195	-350.71583	-400.12141	606.66623	-361.75099	-306.53428	534.70722	-364.11600	-316.39242	650.17289	-777.85809	-204.78222	569.38005	-763.99318	-384.30459	560.58095	-740.15584	-266.34413	481.73918	-742.54517	-332.88482	721.93993	-435.99127	-481.20064	843.12242	-508.77241	-335.50398	725.41091	-674.82972	-481.71953	854.27800	-605.09915	-153.60552	1114.28086	-564.36245	-40.49469	1040.58318	-423.47668	-52.39276	1039.79403	-712.52630	-52.02128	997.49268	-541.62558	-48.62209	998.41631	-578.21057	6.63536	944.67366	-359.65513	48.46045	731.96842	-418.32442	83.31181	757.73046	-349.21374	179.00863	836.89519	-412.29403	257.60329	899.60592	-478.04215	285.86227	877.43030	-481.37691	-11.67103	960.39989	-780.21794	57.73893	731.02670	-751.93117	73.70738	777.62089	-819.32836	149.09252	830.94928	-752.20996	255.32797	876.79260	-667.24857	277.59290	865.68787	-692.07322	-437.27624	686.56729	-456.90337	-435.90362	693.90717	-663.23825	-428.43624	682.08408	-473.01285	-429.28028	700.22047	-629.62343	
